<?xml version="1.0" encoding="UTF-8"?>
<svg id="Layer_1" data-name="Layer 1" xmlns="http://www.w3.org/2000/svg" viewBox="0 0 1853.96 3269.13">
  <defs>
    <style>
      .cls-1 {
        letter-spacing: -.02em;
      }

      .cls-2, .cls-3, .cls-4 {
        font-family: ArialMT, Arial;
      }

      .cls-2, .cls-4, .cls-5 {
        font-size: 24px;
      }

      .cls-2, .cls-6 {
        fill: gray;
      }

      .cls-7 {
        fill: none;
      }

      .cls-8 {
        letter-spacing: -.06em;
      }

      .cls-9 {
        font-family: ArialRoundedMTBold, 'Arial Rounded MT Bold';
      }

      .cls-10 {
        letter-spacing: -.07em;
      }

      .cls-11 {
        fill: #f2f2f2;
      }

      .cls-12 {
        letter-spacing: 0em;
      }

      .cls-13 {
        letter-spacing: .01em;
      }

      .cls-14 {
        font-size: 23.99px;
      }

      .cls-14, .cls-15 {
        font-family: MyriadPro-Regular, 'Myriad Pro';
      }

      .cls-16 {
        letter-spacing: 0em;
      }

      .cls-17 {
        letter-spacing: 0em;
      }

      .cls-15 {
        font-size: 24.02px;
      }
    </style>
  </defs>
  <rect class="cls-11" x="1220.63" y="1455.43" width="104.12" height="38.31"/>
  <rect class="cls-11" x="1017.56" y="1456.59" width="136.44" height="38.31"/>
  <rect class="cls-11" x="733.4" y="1460.66" width="230.24" height="38.31"/>
  <rect x="729.4" y="1462.8" width="4" height="34.17" transform="translate(1462.8 2959.78) rotate(180)"/>
  <text class="cls-4" transform="translate(746.76 1485.78)"><tspan x="0" y="0">iPhone 16 Pro Max</tspan></text>
  <text class="cls-4" transform="translate(749 1529.4)"><tspan x="0" y="0">Iphone 16 Pro</tspan></text>
  <text class="cls-4" transform="translate(750 1572.66)"><tspan x="0" y="0">iPhone 16 </tspan></text>
  <text class="cls-4" transform="translate(750.24 1611.72)"><tspan x="0" y="0">iPhone 15 Pro Max</tspan></text>
  <text class="cls-4" transform="translate(749.51 1651.82)"><tspan x="0" y="0">iPhone 15 Pro</tspan></text>
  <text class="cls-4" transform="translate(750.75 1691.36)"><tspan x="0" y="0">iPhone 15 </tspan></text>
  <text class="cls-4" transform="translate(751.81 1729)"><tspan x="0" y="0">iPhone 14 Pro Max</tspan></text>
  <text class="cls-4" transform="translate(752.57 1769.4)"><tspan x="0" y="0">iPhone 14 Pro</tspan></text>
  <text class="cls-4" transform="translate(752.81 1812.65)"><tspan x="0" y="0">iPhone 14</tspan></text>
  <text class="cls-4" transform="translate(751.81 1854.1)"><tspan x="0" y="0">iPhone 13 Pro Max</tspan></text>
  <text class="cls-4" transform="translate(751.81 1894.82)"><tspan x="0" y="0">iPhone 13 Pro</tspan></text>
  <text class="cls-4" transform="translate(753.47 1934.36)"><tspan x="0" y="0">iPhone 13 </tspan></text>
  <g>
    <rect x="964.14" y="1239.04" width="164.68" height="2.9"/>
    <path d="M1128.32,1239.54v1.9h-163.68v-1.9h163.68M1129.32,1238.54h-165.68v3.9h165.68v-3.9h0Z"/>
  </g>
  <text class="cls-5" transform="translate(966.68 1223.96)"><tspan class="cls-3" x="0" y="0">Select </tspan><tspan class="cls-9" x="73.37" y="0">iPhone</tspan></text>
  <rect x="1011.76" y="1458.66" width="4" height="34.17" transform="translate(2027.52 2951.49) rotate(180)"/>
  <text class="cls-4" transform="translate(1029.12 1481.64)"><tspan x="0" y="0">Spacegrey</tspan></text>
  <text class="cls-4" transform="translate(1031.36 1525.25)"><tspan x="0" y="0">White</tspan></text>
  <text class="cls-4" transform="translate(1032.36 1568.51)"><tspan x="0" y="0">Gold</tspan></text>
  <text class="cls-4" transform="translate(1033.12 1616.11)"><tspan x="0" y="0">Rose</tspan></text>
  <text class="cls-4" transform="translate(1030.22 1661.12)"><tspan x="0" y="0">Dark Blue</tspan></text>
  <rect x="1214.38" y="1457.94" width="4" height="34.17" transform="translate(2432.76 2950.05) rotate(180)"/>
  <text class="cls-4" transform="translate(1231.74 1480.92)"><tspan x="0" y="0">128GB</tspan></text>
  <text class="cls-4" transform="translate(1233.98 1524.53)"><tspan x="0" y="0">256GB</tspan></text>
  <text class="cls-4" transform="translate(1234.98 1567.79)"><tspan x="0" y="0">512GB</tspan></text>
  <line class="cls-7" x1="96.45" y1="1216.21" x2="218.37" y2="1242.44"/>
  <text class="cls-14" transform="translate(1794.68 2145.63) scale(1.1 1)"><tspan x="0" y="0">N</tspan><tspan class="cls-16" x="15.79" y="0">e</tspan><tspan class="cls-13" x="27.74" y="0">x</tspan><tspan x="39.16" y="0">t</tspan></text>
  <text class="cls-15" transform="translate(1726.75 2144.66) scale(1.1 1)"><tspan class="cls-1" x="0" y="0">P</tspan><tspan class="cls-12" x="12.4" y="0">r</tspan><tspan x="20.01" y="0">ev</tspan></text>
  <rect x="1784.67" y="2123.54" width="1.37" height="31.51"/>
  <rect x="1793.69" y="2150.05" width="60.27" height="1.37"/>
  <rect x="1725.81" y="2149.29" width="51.21" height="1.76"/>
  <text class="cls-14" transform="translate(1742.52 3263.13) scale(1.1 1)"><tspan class="cls-17" x="0" y="0">S</tspan><tspan x="11.97" y="0">end</tspan></text>
  <rect x="1741.81" y="3266.64" width="61.53" height="1.26"/>
  <text/>
  <g>
    <rect class="cls-6" x="555.86" y="2652.48" width="241.88" height="1.95"/>
    <path class="cls-6" d="M797.24,2652.98v.95h-240.88v-.95h240.88M798.24,2651.98h-242.88v2.95h242.88v-2.95h0Z"/>
  </g>
  <text class="cls-2" transform="translate(558.4 2636.46)"><tspan class="cls-8" x="0" y="0">T</tspan><tspan x="13.34" y="0">ype in name...</tspan></text>
  <g>
    <rect class="cls-6" x="559.45" y="2769.26" width="241.88" height="1.95"/>
    <path class="cls-6" d="M800.83,2769.76v.95h-240.88v-.95h240.88M801.83,2768.76h-242.88v2.95h242.88v-2.95h0Z"/>
  </g>
  <text class="cls-2" transform="translate(561.99 2753.24)"><tspan class="cls-8" x="0" y="0">T</tspan><tspan x="13.34" y="0">ype in adress...</tspan></text>
  <g>
    <rect class="cls-6" x="893.74" y="2775.54" width="241.88" height="1.95"/>
    <path class="cls-6" d="M1135.11,2776.04v.95h-240.88v-.95h240.88M1136.11,2775.04h-242.88v2.95h242.88v-2.95h0Z"/>
  </g>
  <text class="cls-2" transform="translate(896.27 2759.52)"><tspan class="cls-8" x="0" y="0">T</tspan><tspan x="13.34" y="0">ype in Postalcode...</tspan></text>
  <g>
    <rect class="cls-6" x="1201.74" y="2777.02" width="241.88" height="1.95"/>
    <path class="cls-6" d="M1443.12,2777.52v.95h-240.88v-.95h240.88M1444.12,2776.52h-242.88v2.95h242.88v-2.95h0Z"/>
  </g>
  <text class="cls-2" transform="translate(1204.27 2761)"><tspan class="cls-8" x="0" y="0">T</tspan><tspan x="13.34" y="0">ype in Cit</tspan><tspan class="cls-10" x="113.38" y="0">y</tspan><tspan x="123.6" y="0">......</tspan></text>
  <g>
    <rect x="914.63" y="2455.54" width="241.88" height="1.95"/>
    <path d="M1156.01,2456.04v.95h-240.88v-.95h240.88M1157.01,2455.04h-242.88v2.95h242.88v-2.95h0Z"/>
  </g>
  <text class="cls-4" transform="translate(970.32 2439.63)"><tspan x="0" y="0">Checkout</tspan></text>
  <g>
    <rect class="cls-6" x="563.04" y="2902.49" width="241.88" height="1.95"/>
    <path class="cls-6" d="M804.42,2902.99v.95h-240.88v-.95h240.88M805.42,2901.99h-242.88v2.95h242.88v-2.95h0Z"/>
  </g>
  <text class="cls-2" transform="translate(565.58 2886.47)"><tspan class="cls-8" x="0" y="0">T</tspan><tspan x="13.34" y="0">ype in emailadress...</tspan></text>
</svg>