<?xml version="1.0" encoding="UTF-8"?>
<svg id="Layer_1" data-name="Layer 1" xmlns="http://www.w3.org/2000/svg" viewBox="0 0 1920 1080">
  <defs>
    <style>
      .cls-1 {
        font-size: 48px;
      }

      .cls-1, .cls-2, .cls-3, .cls-4, .cls-5 {
        fill: #fff;
      }

      .cls-1, .cls-6, .cls-4 {
        font-family: ArialRoundedMTBold, 'Arial Rounded MT Bold';
      }

      .cls-7 {
        letter-spacing: 0em;
      }

      .cls-8 {
        letter-spacing: 0em;
      }

      .cls-9 {
        letter-spacing: -.01em;
      }

      .cls-3, .cls-10 {
        font-family: ArialMT, Arial;
      }

      .cls-3, .cls-10, .cls-5 {
        font-size: 21px;
      }

      .cls-11 {
        letter-spacing: -.09em;
      }

      .cls-12 {
        letter-spacing: 0em;
      }

      .cls-6 {
        font-size: 36px;
      }

      .cls-13 {
        letter-spacing: -.02em;
      }

      .cls-14 {
        letter-spacing: -.01em;
      }

      .cls-15 {
        font-family: MyriadPro-Regular, 'Myriad Pro';
        font-size: 12px;
      }

      .cls-16 {
        letter-spacing: -.07em;
      }

      .cls-17 {
        letter-spacing: -.05em;
      }

      .cls-18 {
        letter-spacing: -.02em;
      }

      .cls-4 {
        font-size: 24.67px;
      }

      .cls-5 {
        font-family: Arial-BoldMT, Arial;
        font-weight: 700;
      }

      .cls-19 {
        letter-spacing: -.01em;
      }
    </style>
  </defs>
  <g>
    <rect x=".5" y=".5" width="1919" height="1079"/>
    <path d="M1919,1v1078H1V1h1918M1920,0H0v1080h1920V0h0Z"/>
  </g>
  <text class="cls-1" transform="translate(170.25 395.08)"><tspan x="0" y="0">As </tspan><tspan class="cls-18" x="72.54" y="0">g</tspan><tspan x="101.34" y="0">ood as n</tspan><tspan class="cls-14" x="296.86" y="0">e</tspan><tspan class="cls-11" x="324.75" y="0">w</tspan><tspan x="359.55" y="0">. As simple as it </tspan><tspan class="cls-18" x="732.68" y="0">g</tspan><tspan x="761.48" y="0">et</tspan><tspan class="cls-17" x="807" y="0">s</tspan><tspan x="830.62" y="0">.</tspan></text>
  <text class="cls-6" transform="translate(197.65 472.14)"><tspan x="0" y="0">Lo</tspan><tspan class="cls-18" x="43.49" y="0">r</tspan><tspan x="58.36" y="0">em ipsum</tspan></text>
  <text class="cls-4" transform="translate(177.02 464.65) scale(1.01 1)"><tspan x="0" y="0">Laun</tspan><tspan class="cls-13" x="59.37" y="0">c</tspan><tspan class="cls-12" x="73.42" y="0">h</tspan></text>
  <text class="cls-5" transform="translate(119.43 84.79) scale(1.02 1)"><tspan class="cls-16" x="0" y="0">T</tspan><tspan class="cls-7" x="11.27" y="0">elli</tspan></text>
  <text class="cls-3" transform="translate(1575.69 79.43) scale(1.11 1)"><tspan x="0" y="0" xml:space="preserve">Helpdesk  |</tspan></text>
  <text class="cls-10" transform="translate(1709.34 80.43)"><tspan class="cls-2" x="0" y="0">About us</tspan><tspan class="cls-8" x="82.89" y="0">ipsum</tspan></text>
  <rect class="cls-2" x="173.92" y="473.08" width="98.22" height="3.08"/>
  <text/>
  <text/>
  <text class="cls-15" transform="translate(216.87 60.05)"><tspan class="cls-9" x="0" y="0">L</tspan><tspan x="5.5" y="0">or</tspan></text>
  <text class="cls-15" transform="translate(993.49 346.34)"><tspan class="cls-9" x="0" y="0">L</tspan><tspan x="5.5" y="0">o</tspan><tspan class="cls-19" x="12.08" y="0">r</tspan><tspan x="15.89" y="0">em ipsum</tspan></text>
</svg>